<svg width="14" height="14" viewBox="0 0 14 14" fill="none" xmlns="http://www.w3.org/2000/svg">
<path opacity="0.8" fill-rule="evenodd" clip-rule="evenodd" d="M6.125 0C5.64175 0 5.25 0.391751 5.25 0.875V5.25H0.875C0.391751 5.25 0 5.64175 0 6.125V7.875C0 8.35825 0.391751 8.75 0.875 8.75H5.25V13.125C5.25 13.6082 5.64175 14 6.125 14H7.875C8.35825 14 8.75 13.6082 8.75 13.125V8.75H13.125C13.6082 8.75 14 8.35825 14 7.875V6.125C14 5.64175 13.6082 5.25 13.125 5.25H8.75V0.875C8.75 0.391751 8.35825 0 7.875 0H6.125Z" fill="black"/>
</svg>
