<svg width="1280" height="145" viewBox="0 0 1280 145" fill="none" xmlns="http://www.w3.org/2000/svg" shape-rendering="crispEdges">
<g clip-path="url(#clip0_259_5186)">
<g clip-path="url(#clip1_259_5186)">
<rect shape-rendering="crispEdges" width="231.784" height="48.7966" transform="matrix(-1 0 0 1 1260.54 97.2894)" fill="black"/>
<rect shape-rendering="crispEdges" x="1040.96" y="85.0902" width="207.386" height="73.195" fill="black"/>
<rect shape-rendering="crispEdges" x="1065.36" y="48.4927" width="158.589" height="146.39" fill="black"/>
<rect shape-rendering="crispEdges" x="1040.96" y="97.2894" width="207.386" height="48.7966" fill="#CED5D9"/>
<rect shape-rendering="crispEdges" x="1053.16" y="60.6919" width="182.987" height="121.992" fill="black"/>
<rect shape-rendering="crispEdges" x="1065.36" y="60.6919" width="158.589" height="121.992" fill="#CED5D9"/>
<rect shape-rendering="crispEdges" x="1065.36" y="72.8911" width="158.589" height="60.9958" fill="black"/>
<rect shape-rendering="crispEdges" x="1187.35" y="85.0902" width="12.1992" height="36.5975" fill="#45E645"/>
<rect shape-rendering="crispEdges" x="1162.95" y="85.0902" width="12.1992" height="36.5975" fill="#45E645"/>
<rect shape-rendering="crispEdges" x="1114.15" y="85.0902" width="12.1992" height="36.5975" fill="#45E645"/>
<rect shape-rendering="crispEdges" x="1089.75" y="85.0902" width="12.1992" height="36.5975" fill="#45E645"/>
<rect shape-rendering="crispEdges" x="1053.16" y="36.2936" width="182.987" height="48.7966" fill="black"/>
<rect shape-rendering="crispEdges" x="1065.36" y="24.0944" width="158.589" height="12.1992" fill="black"/>
<rect shape-rendering="crispEdges" x="1077.55" y="11.8953" width="134.191" height="12.1992" fill="black"/>
<rect shape-rendering="crispEdges" width="85.3941" height="12.1992" transform="matrix(-1 0 0 1 1187.35 -0.303894)" fill="black"/>
<rect shape-rendering="crispEdges" x="1065.36" y="36.2936" width="158.589" height="36.5975" fill="#365FB3"/>
<rect shape-rendering="crispEdges" x="1077.55" y="60.6919" width="134.191" height="12.1992" fill="black"/>
<rect shape-rendering="crispEdges" x="1089.75" y="48.4927" width="109.792" height="12.1992" fill="black"/>
<rect shape-rendering="crispEdges" x="1077.55" y="24.0944" width="134.191" height="12.1992" fill="#365FB3"/>
<rect shape-rendering="crispEdges" x="1101.95" y="11.8953" width="85.3941" height="12.1992" fill="#365FB3"/>
<rect shape-rendering="crispEdges" x="1114.15" y="36.2936" width="60.9958" height="12.1992" fill="#FFDD33"/>
<rect shape-rendering="crispEdges" x="1126.35" y="24.0944" width="36.5975" height="12.1992" fill="#FFDD33"/>
<rect shape-rendering="crispEdges" x="1138.55" y="11.8953" width="12.1992" height="12.1992" fill="#FFDD33"/>
<rect shape-rendering="crispEdges" x="1150.75" y="36.2936" width="12.1992" height="12.1992" fill="#997A6B"/>
<rect shape-rendering="crispEdges" x="1126.35" y="36.2936" width="12.1992" height="12.1992" fill="#997A6B"/>
<rect shape-rendering="crispEdges" x="1138.55" y="24.0944" width="12.1992" height="12.1992" fill="#997A6B"/>
</g>
<g clip-path="url(#clip2_259_5186)">
<rect shape-rendering="crispEdges" width="231.784" height="48.7966" transform="matrix(-1 0 0 1 1008.29 97.2894)" fill="black"/>
<rect shape-rendering="crispEdges" x="788.704" y="85.0902" width="207.386" height="73.195" fill="black"/>
<rect shape-rendering="crispEdges" x="813.102" y="48.4927" width="158.589" height="146.39" fill="black"/>
<rect shape-rendering="crispEdges" x="788.704" y="97.2894" width="207.386" height="48.7966" fill="#CED5D9"/>
<rect shape-rendering="crispEdges" x="800.903" y="60.6919" width="182.987" height="121.992" fill="black"/>
<rect shape-rendering="crispEdges" x="813.102" y="60.6919" width="158.589" height="121.992" fill="#CED5D9"/>
<rect shape-rendering="crispEdges" x="898.496" y="85.0902" width="60.9958" height="48.7966" fill="black"/>
<rect shape-rendering="crispEdges" x="825.301" y="85.0902" width="60.9958" height="48.7966" fill="black"/>
<rect shape-rendering="crispEdges" x="935.094" y="72.8911" width="24.3983" height="12.1992" fill="black"/>
<rect shape-rendering="crispEdges" x="825.301" y="72.8911" width="24.3983" height="12.1992" fill="black"/>
<rect shape-rendering="crispEdges" x="910.695" y="109.489" width="36.5975" height="12.1992" fill="#FF3333"/>
<rect shape-rendering="crispEdges" x="837.5" y="109.489" width="36.5975" height="12.1992" fill="#FF3333"/>
<rect shape-rendering="crispEdges" x="910.695" y="97.2894" width="36.5975" height="12.1992" fill="#FF7A1A"/>
<rect shape-rendering="crispEdges" x="837.5" y="97.2894" width="36.5975" height="12.1992" fill="#FF7A1A"/>
<rect shape-rendering="crispEdges" x="935.094" y="85.0902" width="12.1992" height="12.1992" fill="#FFDD33"/>
<rect shape-rendering="crispEdges" x="837.5" y="85.0902" width="12.1992" height="12.1992" fill="#FFDD33"/>
<rect shape-rendering="crispEdges" width="36.5975" height="12.1992" transform="matrix(-1 0 0 1 947.293 36.2936)" fill="black"/>
<rect shape-rendering="crispEdges" x="837.5" y="36.2936" width="36.5975" height="12.1992" fill="black"/>
<rect shape-rendering="crispEdges" width="24.3983" height="12.1992" transform="matrix(-1 0 0 1 935.094 24.0944)" fill="black"/>
<rect shape-rendering="crispEdges" x="849.7" y="24.0944" width="24.3983" height="12.1992" fill="black"/>
<rect shape-rendering="crispEdges" width="12.1992" height="12.1992" transform="matrix(-1 0 0 1 935.094 36.2936)" fill="#FF5967"/>
<rect shape-rendering="crispEdges" x="849.7" y="36.2936" width="12.1992" height="12.1992" fill="#FF5967"/>
</g>
<g clip-path="url(#clip3_259_5186)">
<rect shape-rendering="crispEdges" width="231.784" height="48.7966" transform="matrix(-1 0 0 1 756.034 97.2894)" fill="black"/>
<rect shape-rendering="crispEdges" x="536.449" y="85.0902" width="207.386" height="73.195" fill="black"/>
<rect shape-rendering="crispEdges" x="560.848" y="48.4927" width="158.589" height="146.39" fill="black"/>
<rect shape-rendering="crispEdges" x="536.449" y="97.2894" width="207.386" height="48.7966" fill="#CED5D9"/>
<rect shape-rendering="crispEdges" x="548.648" y="60.6919" width="182.987" height="121.992" fill="black"/>
<rect shape-rendering="crispEdges" x="560.848" y="60.6919" width="158.589" height="121.992" fill="#CED5D9"/>
<rect shape-rendering="crispEdges" x="573.047" y="72.8911" width="134.191" height="60.9958" fill="black"/>
<rect shape-rendering="crispEdges" x="585.246" y="85.0902" width="12.1992" height="12.1992" fill="white"/>
<rect shape-rendering="crispEdges" x="682.839" y="36.2936" width="12.1992" height="12.1992" fill="black"/>
<rect shape-rendering="crispEdges" x="670.64" y="24.0944" width="12.1992" height="12.1992" fill="black"/>
<rect shape-rendering="crispEdges" x="682.839" y="11.8953" width="12.1992" height="12.1992" fill="black"/>
</g>
<g clip-path="url(#clip4_259_5186)">
<rect shape-rendering="crispEdges" width="231.784" height="48.7966" transform="matrix(-1 0 0 1 503.781 97.2894)" fill="black"/>
<rect shape-rendering="crispEdges" x="284.196" y="85.0902" width="207.386" height="73.195" fill="black"/>
<rect shape-rendering="crispEdges" x="308.594" y="48.4927" width="158.589" height="146.39" fill="black"/>
<rect shape-rendering="crispEdges" x="284.196" y="97.2894" width="207.386" height="48.7966" fill="#CED5D9"/>
<rect shape-rendering="crispEdges" x="296.395" y="60.6919" width="182.987" height="121.992" fill="black"/>
<rect shape-rendering="crispEdges" x="308.594" y="60.6919" width="158.589" height="121.992" fill="#CED5D9"/>
<rect shape-rendering="crispEdges" x="393.988" y="72.8911" width="60.9958" height="60.9958" fill="black"/>
<rect shape-rendering="crispEdges" x="320.793" y="72.8911" width="60.9958" height="60.9958" fill="black"/>
<rect shape-rendering="crispEdges" x="418.387" y="109.489" width="12.1992" height="12.1992" fill="#FF5967"/>
<rect shape-rendering="crispEdges" x="345.192" y="109.489" width="12.1992" height="12.1992" fill="#FF5967"/>
<rect shape-rendering="crispEdges" x="406.188" y="85.0902" width="36.5975" height="24.3983" fill="#FF5967"/>
<rect shape-rendering="crispEdges" x="332.993" y="85.0902" width="36.5975" height="24.3983" fill="#FF5967"/>
<rect shape-rendering="crispEdges" x="418.387" y="85.0902" width="12.1992" height="12.1992" fill="black"/>
<rect shape-rendering="crispEdges" x="345.192" y="85.0902" width="12.1992" height="12.1992" fill="black"/>
<rect shape-rendering="crispEdges" width="60.9958" height="12.1992" transform="matrix(-1 0 0 1 418.387 36.2936)" fill="black"/>
<rect shape-rendering="crispEdges" width="36.5975" height="12.1992" transform="matrix(-1 0 0 1 406.188 24.0944)" fill="black"/>
<rect shape-rendering="crispEdges" width="12.1992" height="12.1992" transform="matrix(-1 0 0 1 393.988 11.8953)" fill="black"/>
<rect shape-rendering="crispEdges" width="36.5975" height="12.1992" transform="matrix(-1 0 0 1 406.188 36.2936)" fill="#00BFFF"/>
<rect shape-rendering="crispEdges" width="12.1992" height="12.1992" transform="matrix(-1 0 0 1 393.988 24.0944)" fill="#00BFFF"/>
<rect shape-rendering="crispEdges" x="369.59" y="36.2936" width="12.1992" height="12.1992" fill="#008FBF"/>
</g>
<g clip-path="url(#clip5_259_5186)">
<rect shape-rendering="crispEdges" width="231.784" height="48.7966" transform="matrix(-1 0 0 1 251.537 97.2894)" fill="black"/>
<rect shape-rendering="crispEdges" x="31.9517" y="85.0902" width="207.386" height="73.195" fill="black"/>
<rect shape-rendering="crispEdges" x="56.3501" y="48.4927" width="158.589" height="146.39" fill="black"/>
<rect shape-rendering="crispEdges" x="31.9517" y="97.2894" width="207.386" height="48.7966" fill="#CED5D9"/>
<rect shape-rendering="crispEdges" x="44.1509" y="60.6919" width="182.987" height="121.992" fill="black"/>
<rect shape-rendering="crispEdges" x="56.3501" y="60.6919" width="158.589" height="121.992" fill="#CED5D9"/>
<rect shape-rendering="crispEdges" x="141.744" y="72.8911" width="60.9958" height="60.9958" fill="black"/>
<rect shape-rendering="crispEdges" x="68.5493" y="72.8911" width="60.9958" height="60.9958" fill="black"/>
<rect shape-rendering="crispEdges" x="141.744" y="109.489" width="60.9958" height="24.3983" fill="#008FBF"/>
<rect shape-rendering="crispEdges" x="68.5493" y="109.489" width="60.9958" height="24.3983" fill="#008FBF"/>
<rect shape-rendering="crispEdges" x="166.143" y="109.489" width="12.1992" height="12.1992" fill="#00BFFF"/>
<rect shape-rendering="crispEdges" x="92.9478" y="109.489" width="12.1992" height="12.1992" fill="#00BFFF"/>
<rect shape-rendering="crispEdges" x="166.143" y="85.0902" width="12.1992" height="24.3983" fill="white"/>
<rect shape-rendering="crispEdges" x="92.9478" y="85.0902" width="12.1992" height="24.3983" fill="white"/>
<rect shape-rendering="crispEdges" x="68.5493" y="11.8953" width="134.191" height="12.1992" fill="black"/>
<rect shape-rendering="crispEdges" x="80.7485" y="-0.303894" width="109.792" height="36.5975" fill="black"/>
<rect shape-rendering="crispEdges" x="80.7485" y="11.8953" width="109.792" height="12.1992" fill="#FFDD33"/>
<rect shape-rendering="crispEdges" x="153.943" y="11.8953" width="24.3983" height="12.1992" fill="white"/>
</g>
</g>
<defs>
<clipPath id="clip0_259_5186">
<rect shape-rendering="crispEdges" width="1280" height="145" fill="white"/>
</clipPath>
<clipPath id="clip1_259_5186">
<rect shape-rendering="crispEdges" width="231.958" height="194.709" fill="white" transform="translate(1028.57 -49.1005)"/>
</clipPath>
<clipPath id="clip2_259_5186">
<rect shape-rendering="crispEdges" width="231.958" height="194.709" fill="white" transform="translate(776.296 -49.1005)"/>
</clipPath>
<clipPath id="clip3_259_5186">
<rect shape-rendering="crispEdges" width="231.958" height="194.709" fill="white" transform="translate(524.021 -49.1005)"/>
</clipPath>
<clipPath id="clip4_259_5186">
<rect shape-rendering="crispEdges" width="231.958" height="194.709" fill="white" transform="translate(271.746 -49.1005)"/>
</clipPath>
<clipPath id="clip5_259_5186">
<rect shape-rendering="crispEdges" width="231.958" height="194.709" fill="white" transform="translate(19.4707 -49.1005)"/>
</clipPath>
</defs>
</svg>
