<svg width="700" height="133" viewBox="0 0 700 133" fill="none" xmlns="http://www.w3.org/2000/svg">
<g clip-path="url(#clip0_351_12349)">
<g clip-path="url(#clip1_351_12349)">
<rect shape-rendering="crispEdges" width="211.3" height="44.4843" transform="matrix(-1 0 0 1 685.741 88.8037)" fill="black"/>
<rect shape-rendering="crispEdges" x="485.562" y="77.6826" width="189.058" height="66.7265" fill="black"/>
<rect shape-rendering="crispEdges" x="507.805" y="44.3193" width="144.574" height="133.453" fill="black"/>
<rect shape-rendering="crispEdges" x="485.562" y="88.8037" width="189.058" height="44.4843" fill="#CED5D9"/>
<rect shape-rendering="crispEdges" x="496.684" y="55.4404" width="166.816" height="111.211" fill="black"/>
<rect shape-rendering="crispEdges" x="507.805" y="55.4404" width="144.574" height="111.211" fill="#CED5D9"/>
<rect shape-rendering="crispEdges" x="585.652" y="77.6826" width="55.6054" height="44.4843" fill="black"/>
<rect shape-rendering="crispEdges" x="518.926" y="77.6826" width="55.6054" height="44.4843" fill="black"/>
<rect shape-rendering="crispEdges" x="619.016" y="66.5615" width="22.2422" height="11.1211" fill="black"/>
<rect shape-rendering="crispEdges" x="518.926" y="66.5615" width="22.2422" height="11.1211" fill="black"/>
<rect shape-rendering="crispEdges" x="596.773" y="99.9248" width="33.3632" height="11.1211" fill="#FF3333"/>
<rect shape-rendering="crispEdges" x="530.047" y="99.9248" width="33.3632" height="11.1211" fill="#FF3333"/>
<rect shape-rendering="crispEdges" x="596.773" y="88.8037" width="33.3632" height="11.1211" fill="#FF7A1A"/>
<rect shape-rendering="crispEdges" x="530.047" y="88.8037" width="33.3632" height="11.1211" fill="#FF7A1A"/>
<rect shape-rendering="crispEdges" x="619.016" y="77.6826" width="11.1211" height="11.1211" fill="#FFDD33"/>
<rect shape-rendering="crispEdges" x="530.047" y="77.6826" width="11.1211" height="11.1211" fill="#FFDD33"/>
<rect shape-rendering="crispEdges" width="33.3632" height="11.1211" transform="matrix(-1 0 0 1 630.137 33.1982)" fill="black"/>
<rect shape-rendering="crispEdges" x="530.047" y="33.1982" width="33.3632" height="11.1211" fill="black"/>
<rect shape-rendering="crispEdges" width="22.2422" height="11.1211" transform="matrix(-1 0 0 1 619.016 22.0771)" fill="black"/>
<rect shape-rendering="crispEdges" x="541.168" y="22.0771" width="22.2422" height="11.1211" fill="black"/>
<rect shape-rendering="crispEdges" width="11.1211" height="11.1211" transform="matrix(-1 0 0 1 619.016 33.1982)" fill="#FF5967"/>
<rect shape-rendering="crispEdges" x="541.168" y="33.1982" width="11.1211" height="11.1211" fill="#FF5967"/>
</g>
<g clip-path="url(#clip2_351_12349)">
<rect shape-rendering="crispEdges" width="211.3" height="44.4843" transform="matrix(-1 0 0 1 455.778 88.8037)" fill="black"/>
<rect shape-rendering="crispEdges" x="255.6" y="77.6826" width="189.058" height="66.7265" fill="black"/>
<rect shape-rendering="crispEdges" x="277.842" y="44.3193" width="144.574" height="133.453" fill="black"/>
<rect shape-rendering="crispEdges" x="255.6" y="88.8037" width="189.058" height="44.4843" fill="#CED5D9"/>
<rect shape-rendering="crispEdges" x="266.721" y="55.4404" width="166.816" height="111.211" fill="black"/>
<rect shape-rendering="crispEdges" x="277.842" y="55.4404" width="144.574" height="111.211" fill="#CED5D9"/>
<rect shape-rendering="crispEdges" x="288.963" y="66.5615" width="122.332" height="55.6054" fill="black"/>
<rect shape-rendering="crispEdges" x="300.084" y="77.6826" width="11.1211" height="11.1211" fill="white"/>
<rect shape-rendering="crispEdges" x="389.053" y="33.1982" width="11.1211" height="11.1211" fill="black"/>
<rect shape-rendering="crispEdges" x="377.932" y="22.0771" width="11.1211" height="11.1211" fill="black"/>
<rect shape-rendering="crispEdges" x="389.053" y="10.9561" width="11.1211" height="11.1211" fill="black"/>
</g>
<g clip-path="url(#clip3_351_12349)">
<rect shape-rendering="crispEdges" width="211.3" height="44.4843" transform="matrix(-1 0 0 1 225.819 88.8037)" fill="black"/>
<rect shape-rendering="crispEdges" x="25.6406" y="77.6826" width="189.058" height="66.7265" fill="black"/>
<rect shape-rendering="crispEdges" x="47.8828" y="44.3193" width="144.574" height="133.453" fill="black"/>
<rect shape-rendering="crispEdges" x="25.6406" y="88.8037" width="189.058" height="44.4843" fill="#CED5D9"/>
<rect shape-rendering="crispEdges" x="36.7617" y="55.4404" width="166.816" height="111.211" fill="black"/>
<rect shape-rendering="crispEdges" x="47.8828" y="55.4404" width="144.574" height="111.211" fill="#CED5D9"/>
<rect shape-rendering="crispEdges" x="125.73" y="66.5615" width="55.6054" height="55.6054" fill="black"/>
<rect shape-rendering="crispEdges" x="59.0039" y="66.5615" width="55.6054" height="55.6054" fill="black"/>
<rect shape-rendering="crispEdges" x="147.973" y="99.9248" width="11.1211" height="11.1211" fill="#FF5967"/>
<rect shape-rendering="crispEdges" x="81.2461" y="99.9248" width="11.1211" height="11.1211" fill="#FF5967"/>
<rect shape-rendering="crispEdges" x="136.852" y="77.6826" width="33.3632" height="22.2422" fill="#FF5967"/>
<rect shape-rendering="crispEdges" x="70.125" y="77.6826" width="33.3632" height="22.2422" fill="#FF5967"/>
<rect shape-rendering="crispEdges" x="147.973" y="77.6826" width="11.1211" height="11.1211" fill="black"/>
<rect shape-rendering="crispEdges" x="81.2461" y="77.6826" width="11.1211" height="11.1211" fill="black"/>
<rect shape-rendering="crispEdges" width="55.6054" height="11.1211" transform="matrix(-1 0 0 1 147.973 33.1982)" fill="black"/>
<rect shape-rendering="crispEdges" width="33.3632" height="11.1211" transform="matrix(-1 0 0 1 136.852 22.0771)" fill="black"/>
<rect shape-rendering="crispEdges" width="11.1211" height="11.1211" transform="matrix(-1 0 0 1 125.73 10.9561)" fill="black"/>
<rect shape-rendering="crispEdges" width="33.3632" height="11.1211" transform="matrix(-1 0 0 1 136.852 33.1982)" fill="#00BFFF"/>
<rect shape-rendering="crispEdges" width="11.1211" height="11.1211" transform="matrix(-1 0 0 1 125.73 22.0771)" fill="#00BFFF"/>
<rect shape-rendering="crispEdges" x="103.488" y="33.1982" width="11.1211" height="11.1211" fill="#008FBF"/>
</g>
</g>
<defs>
<clipPath id="clip0_351_12349">
<rect shape-rendering="crispEdges" width="700" height="132.888" fill="white" transform="translate(0 0.112305)"/>
</clipPath>
<clipPath id="clip1_351_12349">
<rect shape-rendering="crispEdges" width="211.459" height="177.502" fill="white" transform="translate(474.252 -44.6494)"/>
</clipPath>
<clipPath id="clip2_351_12349">
<rect shape-rendering="crispEdges" width="211.459" height="177.502" fill="white" transform="translate(244.271 -44.6494)"/>
</clipPath>
<clipPath id="clip3_351_12349">
<rect shape-rendering="crispEdges" width="211.459" height="177.502" fill="white" transform="translate(14.2891 -44.6494)"/>
</clipPath>
</defs>
</svg>
