<svg width="96" height="24" viewBox="0 0 96 24" fill="none" xmlns="http://www.w3.org/2000/svg">
<path d="M14.6604 1.83164C13.9274 1.57228 12.8228 1.41465 11.409 1.47184C9.99405 1.50017 8.32756 1.74098 6.8657 2.75382C5.40267 3.73782 4.17313 5.49267 3.36589 6.97035C2.55981 8.47688 2.20488 9.70505 1.94001 11.0163C1.64745 12.3575 1.47148 13.723 1.71345 15.4183C1.95426 17.0848 2.63954 19.0223 3.6247 20.5142C4.63754 21.9761 5.9491 22.9634 7.82022 23.4947C9.66248 24.0271 12.0643 24.1033 13.8185 23.8879C15.5727 23.6724 16.737 23.1629 17.3578 22.791C18.0074 22.4179 18.1712 22.1801 18.0193 20.5678C17.8686 18.9844 17.431 16.0253 16.9745 14.7433C16.5169 13.4323 16.0404 13.7984 15.5038 14.1091C14.9396 14.4499 14.3442 14.734 13.5975 14.8509C12.8508 14.9678 12.0106 14.9151 11.4737 14.5033C10.9368 14.0915 10.7599 13.2895 10.8161 12.5358C10.8435 11.7833 11.134 11.1068 11.8702 10.7302C12.6352 10.3525 13.8182 10.3046 14.8074 10.4669C15.7966 10.6292 16.5619 10.974 16.9971 11.0142C17.431 11.0255 17.5048 10.7046 17.4257 9.46511C17.3479 8.25444 17.1161 6.09628 16.8616 4.80606C16.6071 3.51583 16.3588 3.09236 16.055 2.72894C15.7513 2.36552 15.4211 2.06097 14.6604 1.83164Z" fill="white"/>
<path d="M23.9718 6.12533C23.788 6.15589 23.6043 6.18644 23.3975 6.21792C22.6414 6.38723 21.9351 6.647 21.2632 7.18283C20.6143 7.71772 19.9988 8.50559 19.5627 9.72549C19.1265 10.9454 18.8705 12.6204 18.9534 14.0968C19.0131 15.5741 19.4135 16.8988 19.8738 17.99C20.312 19.1052 20.811 20.0098 21.5823 20.7878C22.3767 21.5649 23.4203 22.2163 24.4269 22.5224C25.4104 22.8294 26.3337 22.7921 27.1775 22.5036C28.0434 22.1912 28.8307 21.6507 29.4961 20.9533C30.1625 20.2789 30.7069 19.4477 31.0738 18.2306C31.4407 17.0135 31.6293 15.3874 31.4966 13.8206C31.3629 12.2307 30.9079 10.7001 30.4504 9.67815C29.9699 8.65717 29.4636 8.14588 29.0286 7.67795C28.5704 7.21095 28.1612 6.81134 27.6181 6.53274C27.0982 6.2532 26.4222 6.1187 25.7039 6.07839C25.148 6.05464 24.57 6.05489 23.9718 6.12533ZM24.9095 11.5901C25.1625 11.5567 25.4164 11.5464 25.6491 11.5833C25.9751 11.6394 26.2558 11.7206 26.5708 12.0778C26.9098 12.4571 27.2582 13.0672 27.3795 13.7791C27.5007 14.4909 27.4171 15.2804 27.1884 15.9139C26.9597 16.5474 26.5859 17.0249 26.1788 17.2494C25.7727 17.4971 25.3092 17.4696 24.8344 17.1651C24.3588 16.8375 23.8719 16.233 23.6758 15.3855C23.4788 14.5149 23.5734 13.4244 23.7771 12.7456C23.9809 12.0669 24.3168 11.799 24.6353 11.6705C24.7267 11.6437 24.8181 11.6169 24.9095 11.5901Z" fill="white"/>
<path d="M32.4875 12.902C32.5034 13.2944 32.513 14.1032 32.7404 14.5795C32.9677 15.0559 33.4359 15.1988 34.4534 15.2039C35.4488 15.233 36.9925 15.1012 37.9139 15.0176C38.8344 14.9111 39.1769 14.8047 39.2718 14.2922C39.3667 13.7797 39.237 12.8602 39.0789 12.381C38.9439 11.901 38.7795 11.8383 37.9716 11.8709C37.1397 11.8815 35.6643 11.9874 34.6524 12.1208C33.6165 12.2321 33.0672 12.3699 32.7689 12.4282C32.4948 12.5086 32.4948 12.5086 32.4875 12.902Z" fill="white"/>
<path d="M46.8336 0.0101006C46.6605 0.0171029 46.4873 0.0241052 46.3431 0.0299404C45.0182 0.141332 43.818 0.47888 42.8163 0.721699C41.7846 0.936833 40.9225 1.0584 40.5189 1.79724C40.0876 2.5661 40.312 3.82864 40.3622 5.06933C40.4412 6.30886 40.3748 7.52536 40.4355 9.02573C40.4951 10.4972 40.6817 12.2526 40.8176 14.1835C40.9246 16.1155 40.9809 18.2229 41.12 19.5178C41.2868 20.7827 41.5663 21.2627 41.7834 21.6296C41.9717 21.9977 42.1265 22.2516 42.6829 22.4314C43.2092 22.5835 44.1661 22.6604 45.4079 22.639C46.6221 22.6477 48.1213 22.5582 49.6147 22.3244C51.078 22.0629 52.5344 21.6283 53.6928 20.9745C54.8802 20.3196 55.7408 19.4467 56.1846 18.2727C56.6284 17.0987 56.6555 15.6237 56.4103 14.5643C56.1928 13.4749 55.702 12.7722 55.2217 12.3292C54.7114 11.8586 54.2392 11.6176 54.0602 11.4803C53.909 11.313 54.0509 11.2495 54.3254 10.8916C54.6011 10.5625 54.9794 9.91139 55.3183 9.00177C55.6572 8.09215 55.9268 6.89633 55.7046 5.69149C55.4813 4.4578 54.794 3.18508 53.8599 2.24025C52.9269 1.32427 51.776 0.735008 50.4613 0.383579C49.2931 0.0840227 48.0166 -0.0377482 46.8336 0.0101006ZM48.2118 5.50325C48.5292 5.49041 48.8766 5.50526 49.171 5.63786C49.7308 5.90421 50.1004 6.46728 50.1042 7.27634C50.1069 8.05654 49.7703 9.02387 49.302 9.59192C48.8625 10.1588 48.3201 10.3252 47.8862 10.3139C47.481 10.3014 47.1855 10.1399 46.9832 9.42561C46.7798 8.68242 46.6707 7.41521 46.5873 6.78278C46.5328 6.14917 46.5328 6.14917 46.6158 6.05911C46.6989 5.96905 46.865 5.78893 47.3208 5.62599C47.5782 5.55778 47.8932 5.48723 48.2118 5.50325ZM49.4427 14.4993C49.8178 14.4841 50.1687 14.5856 50.4147 14.9513C50.7819 15.4567 50.9358 16.4042 50.7642 17.1625C50.5626 17.8932 50.0342 18.4059 49.4411 18.7477C48.8203 19.1197 48.136 19.3496 47.8207 18.6977C47.5341 18.0446 47.5612 16.5695 47.5885 15.817C47.6159 15.0645 47.6159 15.0645 47.8432 14.9686C48.0994 14.8715 48.5817 14.6497 49.0687 14.5433C49.1842 14.5387 49.3273 14.504 49.4427 14.4993Z" fill="white"/>
<path d="M62.4555 4.56876C62.2717 4.59931 62.088 4.62986 61.8812 4.66135C61.1251 4.83066 60.4189 5.09042 59.7469 5.62625C59.0981 6.16115 58.4826 6.94901 58.0464 8.16892C57.6102 9.38882 57.3543 11.0638 57.4371 12.5402C57.4968 14.0175 57.8972 15.3423 58.3575 16.4334C58.7957 17.5486 59.2947 18.4532 60.066 19.2313C60.8604 20.0083 61.9041 20.6597 62.9106 20.9658C63.8941 21.2729 64.8174 21.2355 65.6612 20.9471C66.5271 20.6346 67.3145 20.0941 67.9799 19.3967C68.6462 18.7224 69.1906 17.8911 69.5575 16.674C69.9245 15.4569 70.113 13.8309 69.9803 12.2641C69.8466 10.6742 69.3917 9.14349 68.9342 8.12158C68.4536 7.1006 67.9474 6.58931 67.5123 6.12138C67.0541 5.65438 66.6449 5.25476 66.1019 4.97616C65.5819 4.69663 64.906 4.56213 64.1876 4.52182C63.6318 4.49806 63.0538 4.49832 62.4555 4.56876ZM63.3932 10.0335C63.6462 10.0001 63.9001 9.98986 64.1328 10.0267C64.4588 10.0829 64.7395 10.164 65.0545 10.5212C65.3935 10.9005 65.7419 11.5107 65.8632 12.2225C65.9845 12.9343 65.9008 13.7238 65.6721 14.3573C65.4434 14.9908 65.0697 15.4683 64.6626 15.6929C64.2564 15.9405 63.7929 15.913 63.3182 15.6085C62.8425 15.281 62.3557 14.6764 62.1595 13.8289C61.9625 12.9583 62.0571 11.8678 62.2608 11.1891C62.4646 10.5103 62.8006 10.2424 63.1191 10.1139C63.2105 10.0871 63.3019 10.0603 63.3932 10.0335Z" fill="white"/>
<path d="M69.8973 5.4469C69.9113 5.79314 69.9633 6.50777 69.9941 7.26949C70.0259 8.0543 70.0595 8.88527 70.1299 9.48356C70.2244 10.104 70.3787 10.4908 70.5949 10.6901C70.812 10.9126 71.1148 10.9697 71.5525 10.9288C72.0132 10.8871 72.6096 10.7705 72.9134 10.8507C73.2172 10.9309 73.2515 11.2069 73.3628 12.2428C73.4731 13.2557 73.6613 15.0515 73.7875 16.4567C73.9128 17.8388 73.9779 18.8766 74.0511 19.5442C74.1484 20.2338 74.2769 20.5523 74.746 20.7183C75.2151 20.8843 76.0701 20.8728 76.8531 20.7949C77.6591 20.7161 78.3931 20.5708 78.8491 20.4136C79.3061 20.2795 79.4621 20.1345 79.5098 19.6008C79.5576 19.0671 79.4963 18.1217 79.4034 16.9694C79.2875 15.8181 79.1382 14.4138 79.0703 13.3067C79.0015 12.1766 79.0131 11.3207 79.0646 10.8793C79.1401 10.4601 79.2555 10.4554 79.8114 10.4792C80.3682 10.526 81.3654 10.6013 81.887 10.349C82.4307 10.0727 82.5218 9.46786 82.5178 8.79753C82.4907 8.12814 82.3926 7.41538 82.2426 6.56599C82.0926 5.7166 81.9149 4.75273 81.5934 4.23397C81.2709 3.69212 80.8286 3.61753 79.9302 3.70011C79.0079 3.76054 77.6294 3.97813 76.3396 4.09966C75.0489 4.19811 73.8707 4.22265 72.8763 4.21663C71.8597 4.23462 71.0029 4.19992 70.5459 4.33401C70.0658 4.46903 69.9625 4.77377 69.9229 4.93721C69.8833 5.10066 69.8833 5.10066 69.8973 5.4469Z" fill="white"/>
<path d="M83.5692 19.2285C83.922 19.3761 84.6026 19.626 85.7679 19.8563C86.9333 20.0866 88.5833 20.2974 89.8925 20.0826C91.2257 19.8899 92.2401 19.2477 92.864 18.6676C93.512 18.1096 93.7684 17.5906 93.9575 17.1206C94.1696 16.6496 94.3144 16.2276 94.2892 15.6043C94.2649 15.0042 94.0707 14.2028 93.8396 13.6342C93.5845 13.0434 93.3156 12.6843 92.6719 12.2017C92.0512 11.7181 91.0556 11.111 90.4367 10.6737C89.7958 10.2603 89.5076 9.99452 89.4511 9.74248C89.3726 9.51445 89.5498 9.32232 89.9596 9.16702C90.3474 9.03573 90.9909 8.94035 91.5948 9.0084C92.1996 9.09954 92.7648 9.35412 93.1397 9.47768C93.5137 9.57816 93.6983 9.57069 93.8996 9.40071C94.0777 9.23166 94.2954 8.89917 94.394 8.47901C94.4927 8.05886 94.449 7.55197 94.4285 7.04415C94.3839 6.51419 94.3403 6.0073 94.2524 5.54845C94.1635 5.06652 94.0295 4.60953 93.8289 4.2246C93.6284 3.83966 93.3614 3.52678 92.7557 3.41256C92.1268 3.29927 91.1361 3.38558 89.7992 3.48589C88.4844 3.56219 86.8003 3.65343 85.687 4.13775C84.5737 4.62207 84.0072 5.47732 83.6696 6.27706C83.308 7.05466 83.1514 7.75461 83.2782 8.60493C83.382 9.45619 83.7463 10.4588 84.5472 11.3974C85.3481 12.3361 86.5618 13.1887 87.2776 13.7377C87.9934 14.2868 88.1874 14.5102 88.2632 14.6689C88.315 14.8056 88.2485 14.8776 88.111 14.9063C87.9503 14.9359 87.7195 14.9452 87.2301 14.8494C86.7638 14.7527 86.0379 14.5277 85.4497 14.2741C84.8614 14.0204 84.4097 13.715 84.0451 13.8454C83.7035 13.9748 83.4489 14.54 83.2792 14.9168C83.1326 15.2926 83.0948 15.5022 82.974 15.9464C82.8764 16.3896 82.7179 17.0434 82.6461 17.555C82.5974 18.0656 82.6354 18.434 82.737 18.6611C82.8618 18.8872 83.0511 18.9952 83.1232 19.0616C83.2174 19.104 83.2174 19.104 83.5692 19.2285Z" fill="white"/>
</svg>
