<svg width="28" height="28" viewBox="0 0 28 28" fill="none" xmlns="http://www.w3.org/2000/svg">
<g clip-path="url(#clip0_831_2727)">
<path d="M5.83668 13.3675C5.8367 13.2107 5.8677 13.0555 5.92788 12.9107C5.98806 12.766 6.07624 12.6345 6.18736 12.524C6.29848 12.4134 6.43035 12.3258 6.5754 12.2664C6.72044 12.2069 6.87581 12.1766 7.03258 12.1774L9.01525 12.1838C9.33138 12.1838 9.63456 12.3094 9.8581 12.533C10.0816 12.7565 10.2072 13.0597 10.2072 13.3758V20.8733C10.4305 20.8072 10.7163 20.7366 11.0308 20.6625C11.2487 20.6113 11.4428 20.4879 11.5818 20.3125C11.7208 20.137 11.7965 19.9198 11.7965 19.6959V10.3965C11.7965 10.0803 11.9221 9.77712 12.1456 9.55354C12.3691 9.32997 12.6723 9.20434 12.9885 9.20427H14.9772C15.2933 9.20434 15.5965 9.32997 15.82 9.55354C16.0436 9.77712 16.1691 10.0803 16.1691 10.3965V19.0279C16.1691 19.0279 16.6667 18.8266 17.151 18.622C17.331 18.5459 17.4845 18.4184 17.5926 18.2556C17.7006 18.0928 17.7583 17.9017 17.7584 17.7063V7.41644C17.7584 7.10035 17.884 6.7972 18.1075 6.57367C18.331 6.35014 18.6341 6.22453 18.9502 6.22447H20.9368C21.2527 6.22478 21.5556 6.3505 21.7789 6.574C22.0022 6.79751 22.1276 7.10051 22.1276 7.41644V15.8898C23.8499 14.6416 25.5954 13.1402 26.9806 11.335C27.1816 11.073 27.3146 10.7653 27.3677 10.4394C27.4208 10.1135 27.3925 9.77945 27.2851 9.46715C26.6439 7.62242 25.6247 5.93186 24.2926 4.50364C22.9606 3.07543 21.345 1.94101 19.5494 1.17299C17.7538 0.404973 15.8176 0.0202593 13.8647 0.0434717C11.9118 0.0666841 9.98534 0.497311 8.20847 1.3078C6.43159 2.11828 4.84347 3.29077 3.54574 4.75025C2.248 6.20972 1.26923 7.92403 0.672053 9.78349C0.0748776 11.6429 -0.12755 13.6066 0.077722 15.5488C0.282994 17.4909 0.891447 19.3689 1.86414 21.0624C2.03361 21.3545 2.28293 21.5923 2.58282 21.7476C2.88271 21.903 3.2207 21.9695 3.5571 21.9394C3.9329 21.9063 4.4008 21.8596 4.9571 21.7943C5.19922 21.7668 5.42274 21.6511 5.58511 21.4694C5.74748 21.2877 5.83734 21.0527 5.8376 20.809V13.3675" fill="#919699"/>
<path d="M5.79395 25.3914C7.88798 26.9148 10.3626 27.8292 12.9441 28.0334C15.5255 28.2377 18.1132 27.7238 20.4207 26.5487C22.7283 25.3735 24.6657 23.583 26.0188 21.3751C27.3719 19.1671 28.0878 16.628 28.0873 14.0384C28.0873 13.7145 28.0722 13.3956 28.0507 13.0776C22.9221 20.7267 13.4525 24.3026 5.79395 25.3914" fill="#919699"/>
</g>
<defs>
<clipPath id="clip0_831_2727">
<rect width="28" height="28" fill="white"/>
</clipPath>
</defs>
</svg>
