<svg width="28" height="28" viewBox="0 0 28 28" fill="none" xmlns="http://www.w3.org/2000/svg">
<path d="M14 0C6.2692 0 0 6.2692 0 14C0 21.7308 6.2692 28 14 28C21.7308 28 28 21.7308 28 14C28 6.2692 21.7336 0 14 0ZM6.9076 14.4704L6.9664 14.3752L10.6092 8.6772C10.6624 8.596 10.7884 8.6044 10.8276 8.694C11.4352 10.0576 11.9616 11.7544 11.7152 12.81C11.6116 13.244 11.3232 13.832 10.9984 14.3752C10.9564 14.4536 10.9116 14.532 10.8612 14.6076C10.8388 14.6412 10.7996 14.6608 10.7576 14.6608H7.014C6.9132 14.6608 6.8544 14.5516 6.9076 14.4704ZM23.1392 16.4304C23.1392 16.4836 23.1084 16.5284 23.0636 16.548C22.7808 16.6684 21.8148 17.1136 21.4144 17.6708C20.3896 19.096 19.6084 21.1344 17.8584 21.1344H10.5616C7.9744 21.1344 5.88 19.0316 5.88 16.436V16.352C5.88 16.2848 5.936 16.2288 6.006 16.2288H10.0716C10.1528 16.2288 10.2116 16.3016 10.206 16.3828C10.1752 16.646 10.2256 16.9176 10.3516 17.164C10.5924 17.654 11.0936 17.9592 11.634 17.9592H13.6472V16.3884H11.6564C11.5556 16.3884 11.494 16.2708 11.5528 16.1868C11.5752 16.1532 11.5976 16.1196 11.6256 16.0804C11.8132 15.8116 12.082 15.3972 12.3508 14.924C12.5328 14.6048 12.7092 14.2632 12.852 13.9216C12.88 13.86 12.9024 13.7956 12.9276 13.734C12.9668 13.6248 13.006 13.5212 13.034 13.4204C13.062 13.3336 13.0872 13.244 13.1096 13.16C13.1768 12.8688 13.2048 12.5608 13.2048 12.2416C13.2048 12.1156 13.1992 11.984 13.188 11.8608C13.1824 11.7236 13.1656 11.5864 13.1488 11.4492C13.1376 11.3288 13.1152 11.2084 13.0928 11.0852C13.062 10.9032 13.0228 10.7212 12.978 10.5392L12.9612 10.4692C12.9276 10.3432 12.8968 10.2256 12.8576 10.0996C12.7428 9.7076 12.614 9.324 12.474 8.9656C12.4236 8.8228 12.3676 8.6856 12.3088 8.5512C12.2248 8.344 12.138 8.1564 12.0596 7.98C12.0176 7.8988 11.984 7.826 11.9504 7.7504C11.9112 7.6664 11.872 7.5824 11.83 7.5012C11.802 7.4396 11.7684 7.3808 11.746 7.3248L11.4996 6.8712C11.466 6.8096 11.522 6.734 11.5892 6.7536L13.1292 7.1708H13.1348C13.1376 7.1708 13.1376 7.1708 13.1404 7.1708L13.342 7.2296L13.566 7.2912L13.6472 7.3136V6.4008C13.6472 5.9584 14 5.6 14.4396 5.6C14.658 5.6 14.8568 5.6896 14.9968 5.8352C15.1396 5.9808 15.2292 6.1796 15.2292 6.4008V7.7588L15.3944 7.8036C15.4056 7.8092 15.4196 7.8148 15.4308 7.8232C15.47 7.8512 15.5288 7.896 15.6016 7.952C15.6604 7.9968 15.722 8.0528 15.7948 8.1116C15.9432 8.232 16.1224 8.386 16.3156 8.5624C16.366 8.6072 16.4164 8.652 16.464 8.6996C16.7132 8.932 16.9932 9.2036 17.262 9.506C17.3376 9.5928 17.4104 9.6768 17.486 9.7692C17.5588 9.8616 17.64 9.9512 17.7072 10.0408C17.7996 10.1612 17.8948 10.2872 17.9816 10.4188C18.0208 10.4804 18.0684 10.5448 18.1048 10.6064C18.2168 10.7716 18.312 10.9424 18.4044 11.1132C18.4436 11.1916 18.4828 11.2784 18.5164 11.3624C18.62 11.592 18.7012 11.8244 18.7516 12.0596C18.7684 12.11 18.7796 12.1632 18.7852 12.2136V12.2248C18.802 12.292 18.8076 12.3648 18.8132 12.4404C18.8356 12.6784 18.8244 12.9192 18.774 13.16C18.7516 13.2608 18.7236 13.356 18.69 13.4596C18.6536 13.5576 18.62 13.6584 18.5752 13.7564C18.4884 13.9552 18.3876 14.1568 18.2672 14.3416C18.228 14.4116 18.1804 14.4844 18.1356 14.5544C18.0852 14.6272 18.032 14.6972 17.9872 14.7644C17.9228 14.8512 17.8556 14.9408 17.7856 15.022C17.724 15.106 17.6624 15.19 17.5924 15.2656C17.4972 15.3804 17.4048 15.4868 17.3068 15.5904C17.2508 15.6576 17.1892 15.7276 17.1248 15.7892C17.0632 15.8592 16.9988 15.9208 16.9428 15.9768C16.8448 16.0748 16.7664 16.1476 16.6992 16.212L16.5396 16.3548C16.5172 16.3772 16.4864 16.3884 16.4556 16.3884H15.2292V17.9592H16.772C17.1164 17.9592 17.444 17.8388 17.71 17.612C17.7996 17.5336 18.1944 17.192 18.662 16.6768C18.6788 16.6572 18.6984 16.646 18.7208 16.6404L22.9796 15.4084C23.0608 15.386 23.1392 15.4448 23.1392 15.5288V16.4304Z" fill="#919699"/>
</svg>
