<svg width="30" height="24" viewBox="0 0 30 24" fill="none" xmlns="http://www.w3.org/2000/svg">
<path d="M26.8488 6.0341C26.8669 6.2894 26.8669 6.54469 26.8669 6.80234C26.8669 14.6529 20.7218 23.707 9.48509 23.707V23.7023C6.16573 23.707 2.91533 22.7823 0.120972 21.0388C0.603633 21.0953 1.08871 21.1235 1.575 21.1247C4.32581 21.127 6.99799 20.2294 9.1621 18.5765C6.54799 18.5282 4.25565 16.8706 3.45484 14.4506C4.37057 14.6223 5.31412 14.587 6.21291 14.3482C3.36291 13.7882 1.3125 11.3529 1.3125 8.52469C1.3125 8.49881 1.3125 8.4741 1.3125 8.4494C2.1617 8.9094 3.1125 9.16469 4.08509 9.19293C1.40081 7.44822 0.573391 3.97528 2.19436 1.25999C5.29597 4.97175 9.87218 7.22822 14.7847 7.46704C14.2923 5.40351 14.9649 3.24116 16.552 1.79057C19.0125 -0.458838 22.8823 -0.343544 25.1952 2.04822C26.5633 1.78587 27.8746 1.29763 29.0746 0.605868C28.6186 1.98116 27.6641 3.1494 26.3891 3.89175C27.6 3.75293 28.7831 3.43763 29.8972 2.95646C29.077 4.15175 28.044 5.19293 26.8488 6.0341Z" fill="#CED5D9"/>
</svg>
