<svg width="28" height="28" viewBox="0 0 28 28" fill="none" xmlns="http://www.w3.org/2000/svg">
<path d="M25.0593 8.63198C25.0762 8.87025 25.0762 9.10853 25.0762 9.349C25.0762 16.6762 19.3407 25.1267 8.85312 25.1267V25.1223C5.75506 25.1267 2.72135 24.2637 0.113281 22.6364C0.563765 22.6891 1.01651 22.7154 1.47038 22.7165C4.0378 22.7187 6.53183 21.8809 8.55167 20.3382C6.11183 20.2932 3.97231 18.746 3.22489 16.4873C4.07957 16.6477 4.96022 16.6147 5.79909 16.3918C3.13909 15.8692 1.22538 13.5962 1.22538 10.9565C1.22538 10.9324 1.22538 10.9093 1.22538 10.8863C2.01796 11.3156 2.90538 11.5539 3.81312 11.5802C1.3078 9.95182 0.535539 6.71041 2.04844 4.17613C4.94328 7.64045 9.21441 9.74649 13.7994 9.96939C13.3399 8.04343 13.9676 6.02523 15.4489 4.67135C17.7454 2.5719 21.3572 2.67951 23.5159 4.91182C24.7928 4.66696 26.0167 4.21127 27.1367 3.56562C26.711 4.84923 25.8202 5.93958 24.6302 6.63245C25.7604 6.50288 26.8646 6.2086 27.9044 5.75951C27.1389 6.87511 26.1747 7.84688 25.0593 8.63198Z" fill="#919699"/>
</svg>
