<svg width="1280" height="32" viewBox="0 0 1280 32" fill="none" xmlns="http://www.w3.org/2000/svg">
<path d="M0 0L104.307 21.6041C137.44 28.4666 171.605 28.6927 204.826 22.2693L269.674 9.73073C302.895 3.30732 337.06 3.53342 370.193 10.3959L424.307 21.6041C457.44 28.4666 491.605 28.6927 524.826 22.2693L589.674 9.73073C622.895 3.30732 657.06 3.53342 690.193 10.3959L744.307 21.6041C777.44 28.4666 811.605 28.6927 844.826 22.2693L909.674 9.73073C942.895 3.30732 977.06 3.53342 1010.19 10.3959L1064.31 21.6041C1097.44 28.4666 1131.61 28.6927 1164.83 22.2693L1280 0V32H0L0 0Z" fill="black"/>
</svg>
